<svg id="visual" viewBox="0 0 900 600" width="900" height="600" xmlns="http://www.w3.org/2000/svg" xmlns:xlink="http://www.w3.org/1999/xlink" version="1.1"><g transform="translate(425.8661552264871 288.34727340089074)"><path d="M169.1 -242C237.4 -219.3 323.3 -203.1 358.5 -155.2C393.6 -107.3 378 -27.6 350.5 38.9C323.1 105.4 284 158.8 240.7 208.3C197.4 257.9 150 303.6 98.1 305.9C46.2 308.3 -10.1 267.4 -83 257.5C-155.9 247.7 -245.4 268.9 -291.5 239.4C-337.7 209.9 -340.6 129.6 -312.1 68.8C-283.6 8 -223.6 -33.4 -181.6 -65.3C-139.6 -97.2 -115.4 -119.6 -88.1 -160.9C-60.8 -202.3 -30.4 -262.7 10 -278.3C50.5 -293.9 100.9 -264.7 169.1 -242" fill="#dacbb6"></path></g></svg>