<svg id="visual" viewBox="0 0 900 600" width="900" height="600" xmlns="http://www.w3.org/2000/svg" xmlns:xlink="http://www.w3.org/1999/xlink" version="1.1"><rect x="0" y="0" width="900" height="600" fill="#ffffff"></rect><defs><linearGradient id="grad1_0" x1="33.3%" y1="0%" x2="100%" y2="100%"><stop offset="20%" stop-color="#ffffff" stop-opacity="1"></stop><stop offset="80%" stop-color="#ffffff" stop-opacity="1"></stop></linearGradient></defs><defs><linearGradient id="grad2_0" x1="0%" y1="0%" x2="66.7%" y2="100%"><stop offset="20%" stop-color="#ffffff" stop-opacity="1"></stop><stop offset="80%" stop-color="#ffffff" stop-opacity="1"></stop></linearGradient></defs><g transform="translate(900, 0)"><path d="M0 486.7C-58.1 470.2 -116.2 453.7 -179.9 434.2C-243.5 414.8 -312.7 392.4 -344.2 344.2C-375.7 296 -369.6 222 -387.1 160.3C-404.6 98.7 -445.7 49.3 -486.7 0L0 0Z" fill="#c8bcac"></path></g><g transform="translate(0, 600)"><path d="M0 -486.7C69.5 -485.4 139 -484 186.3 -449.7C233.5 -415.4 258.6 -348 301.2 -301.2C343.9 -254.4 404.1 -228.2 437.9 -181.4C471.8 -134.6 479.3 -67.3 486.7 0L0 0Z" fill="#c8bcac"></path></g></svg>