<svg id="visual" viewBox="0 0 900 600" width="900" height="600" xmlns="http://www.w3.org/2000/svg" xmlns:xlink="http://www.w3.org/1999/xlink" version="1.1"><g transform="translate(877.5479957119181 -26.334250413318273)"><path d="M244.9 -313.7C313.8 -287 363.8 -210.7 367.3 -134.7C370.9 -58.7 328.1 17 288.1 79.2C248 141.4 210.7 190 163.2 249.6C115.6 309.1 57.8 379.6 0.5 378.9C-56.8 378.2 -113.6 306.4 -175 251.3C-236.3 196.3 -302.2 157.9 -318.4 104.3C-334.5 50.8 -301 -18.1 -275.4 -87.2C-249.8 -156.4 -232.2 -225.8 -187.6 -260.5C-143 -295.2 -71.5 -295.1 8.2 -306.4C88 -317.7 175.9 -340.5 244.9 -313.7" fill="#dacbb6"></path></g></svg>